<svg xmlns="http://www.w3.org/2000/svg" width="200" height="200" viewBox="0 0 200 200">
  <defs>
    <radialGradient id="body" cx="36%" cy="24%" r="78%"><stop offset="0" stop-color="#efff57"/><stop offset=".32" stop-color="#c5f431"/><stop offset=".68" stop-color="#8dcc1c"/><stop offset="1" stop-color="#4e8f0c"/></radialGradient>
    <radialGradient id="bodyGlow" cx="34%" cy="18%" r="65%"><stop offset="0" stop-color="#ffffff" stop-opacity=".56"/><stop offset=".5" stop-color="#ffffff" stop-opacity=".06"/><stop offset="1" stop-color="#ffffff" stop-opacity="0"/></radialGradient>
    <linearGradient id="muzzle" x1="0" y1="0" x2="0" y2="1"><stop offset="0" stop-color="#fff8c9"/><stop offset=".55" stop-color="#eadf9b"/><stop offset="1" stop-color="#c8b86d"/></linearGradient>
    <linearGradient id="leafBig" x1="0" y1="1" x2="1" y2="0"><stop offset="0" stop-color="#3d8b0e"/><stop offset=".42" stop-color="#7fca18"/><stop offset=".72" stop-color="#b7ec31"/><stop offset="1" stop-color="#5da714"/></linearGradient>
    <linearGradient id="leafSmall" x1="0" y1="1" x2="1" y2="0"><stop offset="0" stop-color="#307a0d"/><stop offset=".52" stop-color="#72ba18"/><stop offset="1" stop-color="#a7e22a"/></linearGradient>
    <radialGradient id="eye" cx="37%" cy="30%" r="75%"><stop offset="0" stop-color="#fffdf2"/><stop offset=".65" stop-color="#f7f5de"/><stop offset="1" stop-color="#d9d7bb"/></radialGradient>
    <radialGradient id="pupil" cx="35%" cy="28%" r="70%"><stop offset="0" stop-color="#345344"/><stop offset=".5" stop-color="#172b27"/><stop offset="1" stop-color="#08110f"/></radialGradient>
    <radialGradient id="mouth" cx="50%" cy="25%" r="85%"><stop offset="0" stop-color="#46322b"/><stop offset=".55" stop-color="#231714"/><stop offset="1" stop-color="#120b0a"/></radialGradient>
    <filter id="shadow" x="-30%" y="-35%" width="160%" height="180%"><feDropShadow dx="0" dy="7" stdDeviation="5" flood-color="#071108" flood-opacity=".42"/></filter>
  </defs>
  <g filter="url(#shadow)">
    <path d="M98 40 C104 17 128 3 161 8 C163 28 143 45 107 47 C103 46 100 44 98 40Z" fill="url(#leafBig)" stroke="#42880f" stroke-width="3" stroke-linejoin="round"/>
    <path d="M96 39 C85 22 69 18 56 25 C61 40 77 48 96 44Z" fill="url(#leafSmall)" stroke="#3e850f" stroke-width="3" stroke-linejoin="round"/>
    <path d="M102 39 C114 31 132 23 151 18" fill="none" stroke="#c7ee48" stroke-width="2.3" stroke-linecap="round" opacity=".8"/>
    <path d="M95 39 C82 34 70 31 61 30" fill="none" stroke="#b6e43e" stroke-width="2" stroke-linecap="round" opacity=".65"/>
    <path d="M98 43 C99 35 101 29 104 22" fill="none" stroke="#5cae14" stroke-width="4" stroke-linecap="round"/>
    <path d="M30 119 C25 88 31 59 53 43 C68 32 87 28 105 29 C127 30 148 40 160 58 C172 75 176 99 171 122 C166 151 144 170 102 173 C59 173 36 155 30 119Z" fill="url(#body)" stroke="#568f15" stroke-width="3.2"/>
    <path d="M38 106 C33 81 40 59 57 48 C72 38 91 35 108 36 C129 37 147 47 157 62" fill="none" stroke="#f7ff8d" stroke-width="4" stroke-linecap="round" opacity=".27"/>
    <path d="M32 119 C29 95 33 71 48 54 C59 41 74 35 93 32 C70 38 55 52 49 72 C43 91 46 111 54 126 C47 126 39 124 32 119Z" fill="#417b0b" opacity=".17"/>
    <ellipse cx="76" cy="52" rx="32" ry="18" fill="url(#bodyGlow)" transform="rotate(-15 76 52)"/>
    <g fill="#6cae16" opacity=".72"><circle cx="42" cy="103" r="5"/><circle cx="49" cy="92" r="3.8"/><circle cx="55" cy="111" r="3.2"/><circle cx="158" cy="104" r="5"/><circle cx="151" cy="92" r="3.8"/><circle cx="145" cy="112" r="3.2"/><circle cx="47" cy="80" r="2.7"/><circle cx="153" cy="80" r="2.7"/></g>
    <path d="M39 126 C50 114 66 111 100 118 C134 111 150 114 161 126 C159 151 138 164 100 166 C62 164 41 151 39 126Z" fill="url(#muzzle)" stroke="#c2ae62" stroke-width="2.8"/>
    <ellipse cx="70" cy="83" rx="24" ry="34" fill="url(#eye)" stroke="#33402d" stroke-width="3"/><ellipse cx="130" cy="83" rx="24" ry="34" fill="url(#eye)" stroke="#33402d" stroke-width="3"/>
    <ellipse cx="73" cy="88" rx="12.5" ry="21" fill="url(#pupil)"/><ellipse cx="127" cy="88" rx="12.5" ry="21" fill="url(#pupil)"/>
    <ellipse cx="77" cy="81" rx="4.3" ry="7" fill="#ffffff"/><ellipse cx="131" cy="81" rx="4.3" ry="7" fill="#ffffff"/><circle cx="69" cy="98" r="2.4" fill="#9bb7a7" opacity=".6"/><circle cx="123" cy="98" r="2.4" fill="#9bb7a7" opacity=".6"/>
    <path d="M49 55 C58 48 68 47 77 53" fill="none" stroke="#313329" stroke-width="7" stroke-linecap="round"/><path d="M123 53 C132 47 142 48 151 55" fill="none" stroke="#313329" stroke-width="7" stroke-linecap="round"/>
    <path d="M47 125 C52 108 71 99 100 99 C129 99 148 108 153 125 C154 153 134 169 100 171 C66 169 46 153 47 125Z" fill="url(#mouth)" stroke="#5b492f" stroke-width="3.5"/>
    <path d="M55 120 C70 112 130 112 145 120" fill="none" stroke="#fff4ce" stroke-width="3" stroke-linecap="round" opacity=".8"/>
    <ellipse cx="100" cy="153" rx="23" ry="10" fill="#df735e"/>
    <ellipse cx="100" cy="149" rx="14" ry="4.2" fill="#f4a18b" opacity=".8"/>
    <g fill="#dfff55" opacity=".24"><circle cx="58" cy="67" r="2.2"/><circle cx="62" cy="62" r="1.4"/><circle cx="139" cy="65" r="2"/><circle cx="146" cy="71" r="1.4"/></g>
  </g>
</svg>