<svg xmlns="http://www.w3.org/2000/svg">
  <symbol id="settings" viewBox="0 0 24 24">
    <circle cx="12" cy="12" r="3.2"/>
    <path d="M12 2.8v2.4M12 18.8v2.4M4.2 4.2l1.7 1.7M18.1 18.1l1.7 1.7M2.8 12h2.4M18.8 12h2.4M4.2 19.8l1.7-1.7M18.1 5.9l1.7-1.7"/>
    <path d="M8.4 3.8 7 6.2 4.3 6.1 3.1 9l2 1.8-.1 2.4-2 1.8 1.2 2.9 2.7-.1 1.4 2.4h3.4l1.4-2.4 2.7.1 1.2-2.9-2-1.8.1-2.4 2-1.8-1.2-2.9-2.7.1-1.4-2.4Z"/>
  </symbol>
  <symbol id="sound-on" viewBox="0 0 24 24">
    <path d="M4 9.5v5h4l5 4v-13l-5 4Z"/>
    <path d="M16.2 8.2a5.2 5.2 0 0 1 0 7.6M18.8 5.8a8.8 8.8 0 0 1 0 12.4"/>
  </symbol>
  <symbol id="sound-off" viewBox="0 0 24 24">
    <path d="M4 9.5v5h4l5 4v-13l-5 4Z"/>
    <path d="m17 9 5 5M22 9l-5 5"/>
  </symbol>
  <symbol id="leaderboard" viewBox="0 0 24 24">
    <path d="M7 21h10M9 17h6M8 4h8v3a4 4 0 0 1-8 0Z"/>
    <path d="M8 6H4v1a3 3 0 0 0 4 2.8M16 6h4v1a3 3 0 0 1-4 2.8M12 12v5"/>
  </symbol>
  <symbol id="profile" viewBox="0 0 24 24">
    <circle cx="12" cy="8" r="4"/>
    <path d="M4.5 21a7.8 7.8 0 0 1 15 0"/>
  </symbol>
  <symbol id="character" viewBox="0 0 24 24">
    <path d="M12 3c4.6 0 8 3.4 8 7.9 0 5-3.2 8.1-8 8.1s-8-3.1-8-8.1C4 6.4 7.4 3 12 3Z"/>
    <circle cx="9" cy="10.2" r="1.1"/>
    <circle cx="15" cy="10.2" r="1.1"/>
    <path d="M8.8 14.5c1.9 1.3 4.5 1.3 6.4 0"/>
  </symbol>
  <symbol id="mode" viewBox="0 0 24 24">
    <rect x="4" y="4" width="7" height="7" rx="1.5"/>
    <rect x="13" y="4" width="7" height="7" rx="1.5"/>
    <rect x="4" y="13" width="7" height="7" rx="1.5"/>
    <rect x="13" y="13" width="7" height="7" rx="1.5"/>
  </symbol>
  <symbol id="difficulty" viewBox="0 0 24 24">
    <path d="M5 20V10M12 20V5M19 20v-8"/>
    <path d="M3.5 20h17"/>
  </symbol>
  <symbol id="back" viewBox="0 0 24 24">
    <path d="m15 6-6 6 6 6"/>
  </symbol>
  <symbol id="close" viewBox="0 0 24 24">
    <path d="M6 6l12 12M18 6 6 18"/>
  </symbol>
  <symbol id="lives" viewBox="0 0 24 24">
    <path d="M12 20s-7.5-4.4-8.8-9.2C2.3 7.4 4.3 5 7.2 5c1.7 0 3.2 1 4.1 2.4C12.2 6 13.7 5 15.4 5c2.9 0 4.9 2.4 4 5.8C18.1 15.6 12 20 12 20Z"/>
  </symbol>
  <symbol id="score" viewBox="0 0 24 24">
    <circle cx="12" cy="12" r="8"/>
    <path d="M12 7v10M8.8 10.1c.6-1 1.7-1.6 3.2-1.6 1.8 0 3 .9 3 2.2 0 3-6 1.1-6 4.1 0 1.4 1.2 2.2 3.1 2.2 1.5 0 2.7-.6 3.4-1.7"/>
  </symbol>
  <symbol id="combo" viewBox="0 0 24 24">
    <path d="M13 2 5 13h6l-1 9 9-12h-6Z"/>
  </symbol>
  <symbol id="mission" viewBox="0 0 24 24">
    <path d="M6 4h11l1 3v13H6Z"/>
    <path d="M9 9h6M9 13h6M9 17h4"/>
  </symbol>
  <symbol id="world" viewBox="0 0 24 24">
    <circle cx="12" cy="12" r="9"/>
    <path d="M3 12h18M12 3c2.4 2.3 3.5 5.3 3.5 9S14.4 18.7 12 21M12 3C9.6 5.3 8.5 8.3 8.5 12S9.6 18.7 12 21"/>
  </symbol>
  <symbol id="progress" viewBox="0 0 24 24">
    <path d="M4 19V5"/>
    <path d="M4 6h11l-1.5 4L15 14H4"/>
  </symbol>
  <symbol id="lock" viewBox="0 0 24 24">
    <rect x="5" y="10" width="14" height="10" rx="2"/>
    <path d="M8 10V8a4 4 0 0 1 8 0v2"/>
  </symbol>
  <symbol id="play" viewBox="0 0 24 24">
    <path d="M8 5v14l11-7Z"/>
  </symbol>
  <symbol id="pause" viewBox="0 0 24 24">
    <path d="M8 5v14M16 5v14"/>
  </symbol>
  <symbol id="refresh" viewBox="0 0 24 24">
    <path d="M20 12a8 8 0 1 1-2.3-5.7"/>
    <path d="M20 4v6h-6"/>
  </symbol>
  <symbol id="check" viewBox="0 0 24 24">
    <path d="m5 12.5 4.4 4.4L19 7"/>
  </symbol>
  <symbol id="fullscreen" viewBox="0 0 24 24">
    <path d="M4 9V4h5M15 4h5v5M20 15v5h-5M9 20H4v-5"/>
  </symbol>
</svg>
